<svg width="74" height="72" viewBox="0 0 74 72" fill="none" xmlns="http://www.w3.org/2000/svg">
<path d="M72.5 35.7488C72.5 54.6157 56.6552 69.9976 37 69.9976C17.3448 69.9976 1.5 54.6157 1.5 35.7488C1.5 16.8819 17.3448 1.5 37 1.5C56.6552 1.5 72.5 16.8819 72.5 35.7488Z" fill="white" stroke="#3065A3" stroke-width="3"/>
<path d="M53.9109 28.8797C52.9906 26.6834 51.6519 24.6871 49.9693 23.0021C48.2917 21.3142 46.2989 19.9722 44.104 19.0523C41.8556 18.1054 39.4398 17.62 37.0001 17.625H36.9181C34.4366 17.6373 32.0372 18.1295 29.7773 19.0974C27.6013 20.0267 25.6272 21.3711 23.9654 23.0554C22.299 24.7367 20.9756 26.7259 20.0689 28.9125C19.1276 31.1862 18.6507 33.6253 18.6661 36.0861C18.6784 38.9326 19.3593 41.7586 20.6308 44.2851V50.5195C20.6308 51.5613 21.4757 52.4062 22.5134 52.4062H28.7396C31.2779 53.6871 34.079 54.361 36.9222 54.375H37.0083C39.4611 54.375 41.8359 53.8992 44.0753 52.9681C46.259 52.0592 48.2444 50.7329 49.92 49.0635C51.6099 47.3859 52.9388 45.4254 53.8698 43.2392C54.8337 40.9752 55.3259 38.5676 55.3382 36.082C55.3464 33.5842 54.8624 31.1601 53.9109 28.8797ZM28.8134 37.9687C27.7306 37.9687 26.8488 37.0869 26.8488 36C26.8488 34.9131 27.7306 34.0312 28.8134 34.0312C29.8962 34.0312 30.778 34.9131 30.778 36C30.778 37.0869 29.9003 37.9687 28.8134 37.9687ZM37.0001 37.9687C35.9173 37.9687 35.0355 37.0869 35.0355 36C35.0355 34.9131 35.9173 34.0312 37.0001 34.0312C38.0829 34.0312 38.9648 34.9131 38.9648 36C38.9648 37.0869 38.0829 37.9687 37.0001 37.9687ZM45.1868 37.9687C44.104 37.9687 43.2222 37.0869 43.2222 36C43.2222 34.9131 44.104 34.0312 45.1868 34.0312C46.2697 34.0312 47.1515 34.9131 47.1515 36C47.1515 37.0869 46.2697 37.9687 45.1868 37.9687Z" fill="#3065A3"/>
</svg>
