<svg width="32" height="32" viewBox="0 0 32 32" fill="none" xmlns="http://www.w3.org/2000/svg">
<g clip-path="url(#clip0_14_386)">
<path d="M26.5001 23.75V10.25C26.5001 9.005 25.4951 8 24.2501 8H3.23511C1.99011 8 0.985107 9.005 0.985107 10.25V23.75C0.985107 24.995 1.99011 26 3.23511 26H24.2501C25.4951 26 26.5001 24.995 26.5001 23.75ZM24.5351 10.085C25.0301 10.58 24.7601 11.09 24.4901 11.345L18.4001 16.925L24.2501 23.015C24.4301 23.225 24.5501 23.555 24.3401 23.78C24.1451 24.02 23.6951 24.005 23.5001 23.855L16.9451 18.26L13.7351 21.185L10.5401 18.26L3.98511 23.855C3.79011 24.005 3.34011 24.02 3.14511 23.78C2.93511 23.555 3.05511 23.225 3.23511 23.015L9.08511 16.925L2.99511 11.345C2.72511 11.09 2.45511 10.58 2.95011 10.085C3.44511 9.59 3.95511 9.83 4.37511 10.19L13.7351 17.75L23.1101 10.19C23.5301 9.83 24.0401 9.59 24.5351 10.085Z" fill="white"/>
</g>
<defs>
<clipPath id="clip0_14_386">
<rect width="32" height="32" fill="white"/>
</clipPath>
</defs>
</svg>
