<svg width="32" height="32" viewBox="0 0 32 32" fill="none" xmlns="http://www.w3.org/2000/svg">
<path d="M16 17.3335C18.2091 17.3335 20 15.5426 20 13.3335C20 11.1244 18.2091 9.3335 16 9.3335C13.7909 9.3335 12 11.1244 12 13.3335C12 15.5426 13.7909 17.3335 16 17.3335Z" stroke="white" stroke-width="2" stroke-linecap="round" stroke-linejoin="round"/>
<path d="M15.9999 2.66675C13.1709 2.66675 10.4578 3.79055 8.45745 5.79094C6.45706 7.79133 5.33325 10.5044 5.33325 13.3334C5.33325 15.8561 5.86925 17.5067 7.33325 19.3334L15.9999 29.3334L24.6666 19.3334C26.1306 17.5067 26.6666 15.8561 26.6666 13.3334C26.6666 10.5044 25.5428 7.79133 23.5424 5.79094C21.542 3.79055 18.8289 2.66675 15.9999 2.66675V2.66675Z" stroke="white" stroke-width="2" stroke-linecap="round" stroke-linejoin="round"/>
</svg>
