<svg width="74" height="72" viewBox="0 0 74 72" fill="none" xmlns="http://www.w3.org/2000/svg">
<path d="M72.5 35.7488C72.5 54.6157 56.6552 69.9976 37 69.9976C17.3448 69.9976 1.5 54.6157 1.5 35.7488C1.5 16.8819 17.3448 1.5 37 1.5C56.6552 1.5 72.5 16.8819 72.5 35.7488Z" fill="white" stroke="#3065A3" stroke-width="3"/>
<g clip-path="url(#clip0_6_168)">
<path d="M27.1002 53.325L34.5255 45.9015M19.6767 45.9015L27.1002 38.4762M46.8997 33.5272L54.3233 26.102M39.4745 26.102L46.8997 18.6785M19.6767 26.102L27.1002 33.5272M27.1002 18.6785L34.5255 26.102M39.4745 45.9015L46.8997 53.325M46.8997 38.4762L54.3233 45.9015M23.3885 49.6115C30.9065 57.1295 43.0935 57.1295 50.6115 49.6115C58.1295 42.0935 58.1295 29.9065 50.6115 22.3885C43.0935 14.8705 30.9065 14.8705 23.3885 22.3885C15.8705 29.9065 15.8705 42.0935 23.3885 49.6115V49.6115ZM29.5747 43.427C31.544 45.3963 34.215 46.5026 37 46.5026C39.785 46.5026 42.456 45.3963 44.4253 43.427C46.3945 41.4577 47.5009 38.7868 47.5009 36.0018C47.5009 33.2167 46.3945 30.5458 44.4253 28.5765C42.456 26.6072 39.785 25.5009 37 25.5009C34.215 25.5009 31.544 26.6072 29.5747 28.5765C27.6055 30.5458 26.4991 33.2167 26.4991 36.0018C26.4991 38.7868 27.6055 41.4577 29.5747 43.427V43.427Z" stroke="#3065A3" stroke-width="2"/>
</g>
<defs>
<clipPath id="clip0_6_168">
<rect width="42" height="42" fill="white" transform="translate(16 15)"/>
</clipPath>
</defs>
</svg>
