<svg width="32" height="32" viewBox="0 0 32 32" fill="none" xmlns="http://www.w3.org/2000/svg">
<path d="M27.3159 22.8533L21.8959 17.9253C21.6397 17.6925 21.303 17.5683 20.957 17.579C20.6109 17.5897 20.2826 17.7344 20.0412 17.9827L16.8506 21.264C16.0826 21.1173 14.5386 20.636 12.9492 19.0507C11.3599 17.46 10.8786 15.912 10.7359 15.1493L14.0146 11.9573C14.2631 11.7162 14.4081 11.3878 14.4188 11.0416C14.4295 10.6954 14.3051 10.3587 14.0719 10.1027L9.14522 4.68399C8.91194 4.42714 8.58773 4.27133 8.24143 4.24967C7.89512 4.22801 7.55402 4.3422 7.29055 4.56799L4.39722 7.04933C4.1667 7.28068 4.02911 7.58859 4.01055 7.91466C3.99055 8.24799 3.60922 16.144 9.73189 22.2693C15.0732 27.6093 21.7639 28 23.6066 28C23.8759 28 24.0412 27.992 24.0852 27.9893C24.4112 27.9711 24.719 27.8329 24.9492 27.6013L27.4292 24.7067C27.6559 24.444 27.7709 24.1032 27.7498 23.7569C27.7286 23.4107 27.5729 23.0864 27.3159 22.8533Z" fill="white"/>
</svg>
