<svg width="74" height="72" viewBox="0 0 74 72" fill="none" xmlns="http://www.w3.org/2000/svg">
<path d="M72.5 36.0918C72.5 54.9586 56.6552 70.3406 37 70.3406C17.3448 70.3406 1.5 54.9586 1.5 36.0918C1.5 17.2249 17.3448 1.84299 37 1.84299C56.6552 1.84299 72.5 17.2249 72.5 36.0918Z" fill="white" stroke="#3065A3" stroke-width="3"/>
<path d="M54.6827 32.5177H43.9327C43.7479 32.5177 43.5968 32.6637 43.5968 32.8423V34.7897C43.5968 34.9682 43.7479 35.1143 43.9327 35.1143H54.6827C54.8675 35.1143 55.0187 34.9682 55.0187 34.7897V32.8423C55.0187 32.6637 54.8675 32.5177 54.6827 32.5177ZM49.0558 38.0355H43.9327C43.7479 38.0355 43.5968 38.1816 43.5968 38.3601V40.3075C43.5968 40.4861 43.7479 40.6321 43.9327 40.6321H49.0558C49.2405 40.6321 49.3917 40.4861 49.3917 40.3075V38.3601C49.3917 38.1816 49.2405 38.0355 49.0558 38.0355ZM35.043 28.8865H33.2247C32.9644 28.8865 32.7544 29.0893 32.7544 29.3409V39.4028C32.7544 39.5488 32.8258 39.6827 32.9476 39.7679L39.2002 44.1741C39.4102 44.3201 39.7041 44.2796 39.8553 44.0767L40.9345 42.6526V42.6486C41.0856 42.4457 41.0395 42.1617 40.8295 42.0156L35.5091 38.2992V29.3409C35.5133 29.0893 35.2991 28.8865 35.043 28.8865Z" fill="#3065A3"/>
<path d="M48.7953 43.1435H46.3682C46.133 43.1435 45.9105 43.2612 45.7845 43.4559C45.2512 44.2714 44.6297 45.0261 43.9158 45.7158C42.6855 46.9046 41.2535 47.8377 39.662 48.4869C38.0117 49.1604 36.2607 49.5012 34.455 49.5012C32.6451 49.5012 30.8941 49.1604 29.248 48.4869C27.6565 47.8377 26.2245 46.9046 24.9942 45.7158C23.7638 44.527 22.798 43.1435 22.1261 41.6058C21.429 40.0154 21.0763 38.3235 21.0763 36.5749C21.0763 34.8262 21.429 33.1384 22.1261 31.5439C22.798 30.0063 23.7638 28.6227 24.9942 27.434C26.2245 26.2452 27.6565 25.3121 29.248 24.6629C30.8941 23.9894 32.6493 23.6486 34.455 23.6486C36.2649 23.6486 38.0159 23.9894 39.662 24.6629C41.2535 25.3121 42.6855 26.2452 43.9158 27.434C44.6297 28.1237 45.2512 28.8783 45.7845 29.6938C45.9105 29.8886 46.133 30.0063 46.3682 30.0063H48.7953C49.0851 30.0063 49.2699 29.7141 49.1397 29.4666C46.4018 24.2044 40.8504 20.7842 34.6524 20.7152C25.5779 20.6057 18.0403 27.7829 18.0235 36.5424C18.0067 45.3182 25.3679 52.4386 34.4508 52.4386C40.7286 52.4386 46.3724 49.0062 49.1397 43.6831C49.2699 43.4356 49.0809 43.1435 48.7953 43.1435Z" fill="#3065A3"/>
</svg>
