<svg width="30" height="30" viewBox="0 0 30 30" fill="none" xmlns="http://www.w3.org/2000/svg">
<path d="M24.5412 9.99624C24.5575 10.215 24.5575 10.4325 24.5575 10.65C24.5575 17.3062 19.4912 24.9762 10.2325 24.9762C7.38 24.9762 4.73 24.15 2.5 22.715C2.905 22.7612 3.295 22.7775 3.71625 22.7775C5.98249 22.783 8.18456 22.0252 9.9675 20.6262C8.91678 20.6072 7.89822 20.2606 7.05405 19.6347C6.20987 19.0088 5.58223 18.1349 5.25875 17.135C5.57 17.1812 5.8825 17.2125 6.21 17.2125C6.66125 17.2125 7.115 17.15 7.53625 17.0412C6.39595 16.811 5.37059 16.1929 4.63452 15.2921C3.89845 14.3913 3.49712 13.2633 3.49875 12.1V12.0375C4.17 12.4112 4.94875 12.645 5.77375 12.6762C5.08261 12.217 4.5159 11.5938 4.12417 10.8622C3.73245 10.1307 3.52789 9.31356 3.52875 8.48374C3.52875 7.54874 3.7775 6.69124 4.21375 5.94374C5.47892 7.50002 7.05688 8.7732 8.84542 9.68082C10.634 10.5884 12.5932 11.1103 14.5962 11.2125C14.5187 10.8375 14.4712 10.4487 14.4712 10.0587C14.4709 9.39744 14.6009 8.74257 14.8538 8.13154C15.1068 7.52052 15.4776 6.96534 15.9452 6.49773C16.4128 6.03012 16.968 5.65926 17.579 5.40634C18.1901 5.15342 18.8449 5.02341 19.5062 5.02374C20.9562 5.02374 22.265 5.63124 23.185 6.61374C24.3122 6.39576 25.3932 5.98427 26.38 5.39749C26.0043 6.56101 25.2172 7.54762 24.1662 8.17249C25.166 8.05847 26.143 7.79556 27.065 7.39249C26.3764 8.39637 25.5231 9.27667 24.5412 9.99624Z" fill="#F8F8F8"/>
</svg>
